<mxfile host="app.diagrams.net" modified="2023-08-07T21:17:30.886Z" agent="Mozilla/5.0 (X11; Linux x86_64) AppleWebKit/537.36 (KHTML, like Gecko) Chrome/115.0.0.0 Safari/537.36" etag="aZcfdesYZw3hfWfbziJW" version="21.6.6" type="github">
  <diagram name="PÃ¡gina-1" id="jo_heMIZXuQTg2KebVLG">
    <mxGraphModel dx="989" dy="554" grid="1" gridSize="10" guides="1" tooltips="1" connect="1" arrows="1" fold="1" page="1" pageScale="1" pageWidth="827" pageHeight="1169" math="0" shadow="0">
      <root>
        <mxCell id="0" />
        <mxCell id="1" parent="0" />
        <mxCell id="lXzNm0UQ8YknDkBXzUpj-116" value="" style="group;fillColor=none;" vertex="1" connectable="0" parent="1">
          <mxGeometry x="190" y="140" width="180" height="90" as="geometry" />
        </mxCell>
        <mxCell id="lXzNm0UQ8YknDkBXzUpj-128" value="" style="endArrow=none;html=1;rounded=0;entryX=0.322;entryY=0;entryDx=0;entryDy=0;entryPerimeter=0;exitX=1;exitY=0;exitDx=0;exitDy=0;" edge="1" parent="lXzNm0UQ8YknDkBXzUpj-116">
          <mxGeometry width="50" height="50" relative="1" as="geometry">
            <mxPoint x="60.5" as="sourcePoint" />
            <mxPoint x="79.5" y="110" as="targetPoint" />
          </mxGeometry>
        </mxCell>
        <mxCell id="lXzNm0UQ8YknDkBXzUpj-104" value="" style="shape=parallelogram;perimeter=parallelogramPerimeter;whiteSpace=wrap;html=1;fixedSize=1;fillColor=#6495ED;" vertex="1" parent="lXzNm0UQ8YknDkBXzUpj-116">
          <mxGeometry x="40" width="60" height="30" as="geometry" />
        </mxCell>
        <mxCell id="lXzNm0UQ8YknDkBXzUpj-105" value="" style="shape=parallelogram;perimeter=parallelogramPerimeter;whiteSpace=wrap;html=1;fixedSize=1;fillColor=#6495ED;" vertex="1" parent="lXzNm0UQ8YknDkBXzUpj-116">
          <mxGeometry x="80" width="60" height="30" as="geometry" />
        </mxCell>
        <mxCell id="lXzNm0UQ8YknDkBXzUpj-106" value="" style="shape=parallelogram;perimeter=parallelogramPerimeter;whiteSpace=wrap;html=1;fixedSize=1;fillColor=#6495ED;" vertex="1" parent="lXzNm0UQ8YknDkBXzUpj-116">
          <mxGeometry x="120" width="60" height="30" as="geometry" />
        </mxCell>
        <mxCell id="lXzNm0UQ8YknDkBXzUpj-107" value="" style="shape=parallelogram;perimeter=parallelogramPerimeter;whiteSpace=wrap;html=1;fixedSize=1;fillColor=#6495ED;" vertex="1" parent="lXzNm0UQ8YknDkBXzUpj-116">
          <mxGeometry x="20" y="30" width="60" height="30" as="geometry" />
        </mxCell>
        <mxCell id="lXzNm0UQ8YknDkBXzUpj-108" value="" style="shape=parallelogram;perimeter=parallelogramPerimeter;whiteSpace=wrap;html=1;fixedSize=1;fillColor=#6495ED;" vertex="1" parent="lXzNm0UQ8YknDkBXzUpj-116">
          <mxGeometry x="60" y="30" width="60" height="30" as="geometry" />
        </mxCell>
        <mxCell id="lXzNm0UQ8YknDkBXzUpj-109" value="" style="shape=parallelogram;perimeter=parallelogramPerimeter;whiteSpace=wrap;html=1;fixedSize=1;fillColor=#6495ED;" vertex="1" parent="lXzNm0UQ8YknDkBXzUpj-116">
          <mxGeometry x="100" y="30" width="60" height="30" as="geometry" />
        </mxCell>
        <mxCell id="lXzNm0UQ8YknDkBXzUpj-110" value="" style="shape=parallelogram;perimeter=parallelogramPerimeter;whiteSpace=wrap;html=1;fixedSize=1;fillColor=#6495ED;" vertex="1" parent="lXzNm0UQ8YknDkBXzUpj-116">
          <mxGeometry y="60" width="60" height="30" as="geometry" />
        </mxCell>
        <mxCell id="lXzNm0UQ8YknDkBXzUpj-111" value="" style="shape=parallelogram;perimeter=parallelogramPerimeter;whiteSpace=wrap;html=1;fixedSize=1;fillColor=#6495ED;" vertex="1" parent="lXzNm0UQ8YknDkBXzUpj-116">
          <mxGeometry x="40" y="60" width="60" height="30" as="geometry" />
        </mxCell>
        <mxCell id="lXzNm0UQ8YknDkBXzUpj-112" value="" style="shape=parallelogram;perimeter=parallelogramPerimeter;whiteSpace=wrap;html=1;fixedSize=1;fillColor=#6495ED;" vertex="1" parent="lXzNm0UQ8YknDkBXzUpj-116">
          <mxGeometry x="80" y="60" width="60" height="30" as="geometry" />
        </mxCell>
        <mxCell id="lXzNm0UQ8YknDkBXzUpj-117" value="" style="group" vertex="1" connectable="0" parent="1">
          <mxGeometry x="170" y="250" width="300" height="150" as="geometry" />
        </mxCell>
        <mxCell id="lXzNm0UQ8YknDkBXzUpj-78" value="" style="shape=parallelogram;perimeter=parallelogramPerimeter;whiteSpace=wrap;html=1;fixedSize=1;fillColor=#B4C9ED;" vertex="1" parent="lXzNm0UQ8YknDkBXzUpj-117">
          <mxGeometry x="80" width="60" height="30" as="geometry" />
        </mxCell>
        <mxCell id="lXzNm0UQ8YknDkBXzUpj-80" value="" style="shape=parallelogram;perimeter=parallelogramPerimeter;whiteSpace=wrap;html=1;fixedSize=1;fillColor=#B4C9ED;" vertex="1" parent="lXzNm0UQ8YknDkBXzUpj-117">
          <mxGeometry x="120" width="60" height="30" as="geometry" />
        </mxCell>
        <mxCell id="lXzNm0UQ8YknDkBXzUpj-81" value="" style="shape=parallelogram;perimeter=parallelogramPerimeter;whiteSpace=wrap;html=1;fixedSize=1;fillColor=#B4C9ED;" vertex="1" parent="lXzNm0UQ8YknDkBXzUpj-117">
          <mxGeometry x="160" width="60" height="30" as="geometry" />
        </mxCell>
        <mxCell id="lXzNm0UQ8YknDkBXzUpj-82" value="" style="shape=parallelogram;perimeter=parallelogramPerimeter;whiteSpace=wrap;html=1;fixedSize=1;" vertex="1" parent="lXzNm0UQ8YknDkBXzUpj-117">
          <mxGeometry x="200" width="60" height="30" as="geometry" />
        </mxCell>
        <mxCell id="lXzNm0UQ8YknDkBXzUpj-83" value="" style="shape=parallelogram;perimeter=parallelogramPerimeter;whiteSpace=wrap;html=1;fixedSize=1;" vertex="1" parent="lXzNm0UQ8YknDkBXzUpj-117">
          <mxGeometry x="240" width="60" height="30" as="geometry" />
        </mxCell>
        <mxCell id="lXzNm0UQ8YknDkBXzUpj-84" value="" style="shape=parallelogram;perimeter=parallelogramPerimeter;whiteSpace=wrap;html=1;fixedSize=1;fillColor=#B4C9ED;" vertex="1" parent="lXzNm0UQ8YknDkBXzUpj-117">
          <mxGeometry x="60" y="30" width="60" height="30" as="geometry" />
        </mxCell>
        <mxCell id="lXzNm0UQ8YknDkBXzUpj-85" value="" style="shape=parallelogram;perimeter=parallelogramPerimeter;whiteSpace=wrap;html=1;fixedSize=1;fillColor=#B4C9ED;" vertex="1" parent="lXzNm0UQ8YknDkBXzUpj-117">
          <mxGeometry x="100" y="30" width="60" height="30" as="geometry" />
        </mxCell>
        <mxCell id="lXzNm0UQ8YknDkBXzUpj-86" value="" style="shape=parallelogram;perimeter=parallelogramPerimeter;whiteSpace=wrap;html=1;fixedSize=1;fillColor=#B4C9ED;" vertex="1" parent="lXzNm0UQ8YknDkBXzUpj-117">
          <mxGeometry x="140" y="30" width="60" height="30" as="geometry" />
        </mxCell>
        <mxCell id="lXzNm0UQ8YknDkBXzUpj-87" value="" style="shape=parallelogram;perimeter=parallelogramPerimeter;whiteSpace=wrap;html=1;fixedSize=1;" vertex="1" parent="lXzNm0UQ8YknDkBXzUpj-117">
          <mxGeometry x="180" y="30" width="60" height="30" as="geometry" />
        </mxCell>
        <mxCell id="lXzNm0UQ8YknDkBXzUpj-88" value="" style="shape=parallelogram;perimeter=parallelogramPerimeter;whiteSpace=wrap;html=1;fixedSize=1;" vertex="1" parent="lXzNm0UQ8YknDkBXzUpj-117">
          <mxGeometry x="220" y="30" width="60" height="30" as="geometry" />
        </mxCell>
        <mxCell id="lXzNm0UQ8YknDkBXzUpj-89" value="" style="shape=parallelogram;perimeter=parallelogramPerimeter;whiteSpace=wrap;html=1;fixedSize=1;fillColor=#B4C9ED;" vertex="1" parent="lXzNm0UQ8YknDkBXzUpj-117">
          <mxGeometry x="40" y="60" width="60" height="30" as="geometry" />
        </mxCell>
        <mxCell id="lXzNm0UQ8YknDkBXzUpj-90" value="" style="shape=parallelogram;perimeter=parallelogramPerimeter;whiteSpace=wrap;html=1;fixedSize=1;fillColor=#B4C9ED;" vertex="1" parent="lXzNm0UQ8YknDkBXzUpj-117">
          <mxGeometry x="80" y="60" width="60" height="30" as="geometry" />
        </mxCell>
        <mxCell id="lXzNm0UQ8YknDkBXzUpj-91" value="" style="shape=parallelogram;perimeter=parallelogramPerimeter;whiteSpace=wrap;html=1;fixedSize=1;fillColor=#B4C9ED;" vertex="1" parent="lXzNm0UQ8YknDkBXzUpj-117">
          <mxGeometry x="120" y="60" width="60" height="30" as="geometry" />
        </mxCell>
        <mxCell id="lXzNm0UQ8YknDkBXzUpj-92" value="" style="shape=parallelogram;perimeter=parallelogramPerimeter;whiteSpace=wrap;html=1;fixedSize=1;" vertex="1" parent="lXzNm0UQ8YknDkBXzUpj-117">
          <mxGeometry x="160" y="60" width="60" height="30" as="geometry" />
        </mxCell>
        <mxCell id="lXzNm0UQ8YknDkBXzUpj-93" value="" style="shape=parallelogram;perimeter=parallelogramPerimeter;whiteSpace=wrap;html=1;fixedSize=1;" vertex="1" parent="lXzNm0UQ8YknDkBXzUpj-117">
          <mxGeometry x="200" y="60" width="60" height="30" as="geometry" />
        </mxCell>
        <mxCell id="lXzNm0UQ8YknDkBXzUpj-94" value="" style="shape=parallelogram;perimeter=parallelogramPerimeter;whiteSpace=wrap;html=1;fixedSize=1;" vertex="1" parent="lXzNm0UQ8YknDkBXzUpj-117">
          <mxGeometry x="20" y="90" width="60" height="30" as="geometry" />
        </mxCell>
        <mxCell id="lXzNm0UQ8YknDkBXzUpj-95" value="" style="shape=parallelogram;perimeter=parallelogramPerimeter;whiteSpace=wrap;html=1;fixedSize=1;" vertex="1" parent="lXzNm0UQ8YknDkBXzUpj-117">
          <mxGeometry x="60" y="90" width="60" height="30" as="geometry" />
        </mxCell>
        <mxCell id="lXzNm0UQ8YknDkBXzUpj-96" value="" style="shape=parallelogram;perimeter=parallelogramPerimeter;whiteSpace=wrap;html=1;fixedSize=1;" vertex="1" parent="lXzNm0UQ8YknDkBXzUpj-117">
          <mxGeometry x="100" y="90" width="60" height="30" as="geometry" />
        </mxCell>
        <mxCell id="lXzNm0UQ8YknDkBXzUpj-97" value="" style="shape=parallelogram;perimeter=parallelogramPerimeter;whiteSpace=wrap;html=1;fixedSize=1;" vertex="1" parent="lXzNm0UQ8YknDkBXzUpj-117">
          <mxGeometry x="140" y="90" width="60" height="30" as="geometry" />
        </mxCell>
        <mxCell id="lXzNm0UQ8YknDkBXzUpj-98" value="" style="shape=parallelogram;perimeter=parallelogramPerimeter;whiteSpace=wrap;html=1;fixedSize=1;" vertex="1" parent="lXzNm0UQ8YknDkBXzUpj-117">
          <mxGeometry x="180" y="90" width="60" height="30" as="geometry" />
        </mxCell>
        <mxCell id="lXzNm0UQ8YknDkBXzUpj-99" value="" style="shape=parallelogram;perimeter=parallelogramPerimeter;whiteSpace=wrap;html=1;fixedSize=1;" vertex="1" parent="lXzNm0UQ8YknDkBXzUpj-117">
          <mxGeometry y="120" width="60" height="30" as="geometry" />
        </mxCell>
        <mxCell id="lXzNm0UQ8YknDkBXzUpj-100" value="" style="shape=parallelogram;perimeter=parallelogramPerimeter;whiteSpace=wrap;html=1;fixedSize=1;" vertex="1" parent="lXzNm0UQ8YknDkBXzUpj-117">
          <mxGeometry x="40" y="120" width="60" height="30" as="geometry" />
        </mxCell>
        <mxCell id="lXzNm0UQ8YknDkBXzUpj-101" value="" style="shape=parallelogram;perimeter=parallelogramPerimeter;whiteSpace=wrap;html=1;fixedSize=1;" vertex="1" parent="lXzNm0UQ8YknDkBXzUpj-117">
          <mxGeometry x="80" y="120" width="60" height="30" as="geometry" />
        </mxCell>
        <mxCell id="lXzNm0UQ8YknDkBXzUpj-102" value="" style="shape=parallelogram;perimeter=parallelogramPerimeter;whiteSpace=wrap;html=1;fixedSize=1;" vertex="1" parent="lXzNm0UQ8YknDkBXzUpj-117">
          <mxGeometry x="120" y="120" width="60" height="30" as="geometry" />
        </mxCell>
        <mxCell id="lXzNm0UQ8YknDkBXzUpj-103" value="" style="shape=parallelogram;perimeter=parallelogramPerimeter;whiteSpace=wrap;html=1;fixedSize=1;" vertex="1" parent="lXzNm0UQ8YknDkBXzUpj-117">
          <mxGeometry x="160" y="120" width="60" height="30" as="geometry" />
        </mxCell>
        <mxCell id="lXzNm0UQ8YknDkBXzUpj-126" value="" style="endArrow=none;html=1;rounded=0;exitX=0;exitY=1;exitDx=0;exitDy=0;entryX=0.322;entryY=0;entryDx=0;entryDy=0;entryPerimeter=0;" edge="1" parent="lXzNm0UQ8YknDkBXzUpj-117" source="lXzNm0UQ8YknDkBXzUpj-110">
          <mxGeometry width="50" height="50" relative="1" as="geometry">
            <mxPoint x="1" y="-110" as="sourcePoint" />
            <mxPoint x="40" y="90" as="targetPoint" />
          </mxGeometry>
        </mxCell>
        <mxCell id="lXzNm0UQ8YknDkBXzUpj-118" value="" style="endArrow=none;html=1;rounded=0;exitX=0.667;exitY=1.011;exitDx=0;exitDy=0;entryX=0.322;entryY=0;entryDx=0;entryDy=0;exitPerimeter=0;entryPerimeter=0;" edge="1" parent="1" source="lXzNm0UQ8YknDkBXzUpj-112" target="lXzNm0UQ8YknDkBXzUpj-97">
          <mxGeometry width="50" height="50" relative="1" as="geometry">
            <mxPoint x="446" y="320" as="sourcePoint" />
            <mxPoint x="496" y="270" as="targetPoint" />
          </mxGeometry>
        </mxCell>
        <mxCell id="lXzNm0UQ8YknDkBXzUpj-125" value="" style="endArrow=none;html=1;rounded=0;entryX=0.322;entryY=0;entryDx=0;entryDy=0;entryPerimeter=0;exitX=1;exitY=0;exitDx=0;exitDy=0;" edge="1" parent="1" source="lXzNm0UQ8YknDkBXzUpj-106">
          <mxGeometry width="50" height="50" relative="1" as="geometry">
            <mxPoint x="380" y="140" as="sourcePoint" />
            <mxPoint x="389" y="250" as="targetPoint" />
          </mxGeometry>
        </mxCell>
        <mxCell id="lXzNm0UQ8YknDkBXzUpj-129" value="" style="shape=table;startSize=0;container=1;collapsible=0;childLayout=tableLayout;fontSize=16;" vertex="1" parent="1">
          <mxGeometry x="450" y="20" width="90" height="80" as="geometry" />
        </mxCell>
        <mxCell id="lXzNm0UQ8YknDkBXzUpj-130" value="" style="shape=tableRow;horizontal=0;startSize=0;swimlaneHead=0;swimlaneBody=0;strokeColor=inherit;top=0;left=0;bottom=0;right=0;collapsible=0;dropTarget=0;fillColor=none;points=[[0,0.5],[1,0.5]];portConstraint=eastwest;fontSize=16;" vertex="1" parent="lXzNm0UQ8YknDkBXzUpj-129">
          <mxGeometry width="90" height="27" as="geometry" />
        </mxCell>
        <mxCell id="lXzNm0UQ8YknDkBXzUpj-131" value="" style="shape=partialRectangle;html=1;whiteSpace=wrap;connectable=0;strokeColor=inherit;overflow=hidden;fillColor=none;top=0;left=0;bottom=0;right=0;pointerEvents=1;fontSize=16;" vertex="1" parent="lXzNm0UQ8YknDkBXzUpj-130">
          <mxGeometry width="30" height="27" as="geometry">
            <mxRectangle width="30" height="27" as="alternateBounds" />
          </mxGeometry>
        </mxCell>
        <mxCell id="lXzNm0UQ8YknDkBXzUpj-132" value="" style="shape=partialRectangle;html=1;whiteSpace=wrap;connectable=0;strokeColor=inherit;overflow=hidden;fillColor=none;top=0;left=0;bottom=0;right=0;pointerEvents=1;fontSize=16;" vertex="1" parent="lXzNm0UQ8YknDkBXzUpj-130">
          <mxGeometry x="30" width="30" height="27" as="geometry">
            <mxRectangle width="30" height="27" as="alternateBounds" />
          </mxGeometry>
        </mxCell>
        <mxCell id="lXzNm0UQ8YknDkBXzUpj-133" value="" style="shape=partialRectangle;html=1;whiteSpace=wrap;connectable=0;strokeColor=inherit;overflow=hidden;fillColor=none;top=0;left=0;bottom=0;right=0;pointerEvents=1;fontSize=16;" vertex="1" parent="lXzNm0UQ8YknDkBXzUpj-130">
          <mxGeometry x="60" width="30" height="27" as="geometry">
            <mxRectangle width="30" height="27" as="alternateBounds" />
          </mxGeometry>
        </mxCell>
        <mxCell id="lXzNm0UQ8YknDkBXzUpj-134" value="" style="shape=tableRow;horizontal=0;startSize=0;swimlaneHead=0;swimlaneBody=0;strokeColor=inherit;top=0;left=0;bottom=0;right=0;collapsible=0;dropTarget=0;fillColor=none;points=[[0,0.5],[1,0.5]];portConstraint=eastwest;fontSize=16;" vertex="1" parent="lXzNm0UQ8YknDkBXzUpj-129">
          <mxGeometry y="27" width="90" height="26" as="geometry" />
        </mxCell>
        <mxCell id="lXzNm0UQ8YknDkBXzUpj-135" value="" style="shape=partialRectangle;html=1;whiteSpace=wrap;connectable=0;strokeColor=inherit;overflow=hidden;fillColor=none;top=0;left=0;bottom=0;right=0;pointerEvents=1;fontSize=16;" vertex="1" parent="lXzNm0UQ8YknDkBXzUpj-134">
          <mxGeometry width="30" height="26" as="geometry">
            <mxRectangle width="30" height="26" as="alternateBounds" />
          </mxGeometry>
        </mxCell>
        <mxCell id="lXzNm0UQ8YknDkBXzUpj-136" value="" style="shape=partialRectangle;html=1;whiteSpace=wrap;connectable=0;strokeColor=inherit;overflow=hidden;fillColor=none;top=0;left=0;bottom=0;right=0;pointerEvents=1;fontSize=16;" vertex="1" parent="lXzNm0UQ8YknDkBXzUpj-134">
          <mxGeometry x="30" width="30" height="26" as="geometry">
            <mxRectangle width="30" height="26" as="alternateBounds" />
          </mxGeometry>
        </mxCell>
        <mxCell id="lXzNm0UQ8YknDkBXzUpj-137" value="" style="shape=partialRectangle;html=1;whiteSpace=wrap;connectable=0;strokeColor=inherit;overflow=hidden;fillColor=none;top=0;left=0;bottom=0;right=0;pointerEvents=1;fontSize=16;" vertex="1" parent="lXzNm0UQ8YknDkBXzUpj-134">
          <mxGeometry x="60" width="30" height="26" as="geometry">
            <mxRectangle width="30" height="26" as="alternateBounds" />
          </mxGeometry>
        </mxCell>
        <mxCell id="lXzNm0UQ8YknDkBXzUpj-138" value="" style="shape=tableRow;horizontal=0;startSize=0;swimlaneHead=0;swimlaneBody=0;strokeColor=inherit;top=0;left=0;bottom=0;right=0;collapsible=0;dropTarget=0;fillColor=none;points=[[0,0.5],[1,0.5]];portConstraint=eastwest;fontSize=16;" vertex="1" parent="lXzNm0UQ8YknDkBXzUpj-129">
          <mxGeometry y="53" width="90" height="27" as="geometry" />
        </mxCell>
        <mxCell id="lXzNm0UQ8YknDkBXzUpj-139" value="" style="shape=partialRectangle;html=1;whiteSpace=wrap;connectable=0;strokeColor=inherit;overflow=hidden;fillColor=none;top=0;left=0;bottom=0;right=0;pointerEvents=1;fontSize=16;" vertex="1" parent="lXzNm0UQ8YknDkBXzUpj-138">
          <mxGeometry width="30" height="27" as="geometry">
            <mxRectangle width="30" height="27" as="alternateBounds" />
          </mxGeometry>
        </mxCell>
        <mxCell id="lXzNm0UQ8YknDkBXzUpj-140" value="" style="shape=partialRectangle;html=1;whiteSpace=wrap;connectable=0;strokeColor=inherit;overflow=hidden;fillColor=none;top=0;left=0;bottom=0;right=0;pointerEvents=1;fontSize=16;" vertex="1" parent="lXzNm0UQ8YknDkBXzUpj-138">
          <mxGeometry x="30" width="30" height="27" as="geometry">
            <mxRectangle width="30" height="27" as="alternateBounds" />
          </mxGeometry>
        </mxCell>
        <mxCell id="lXzNm0UQ8YknDkBXzUpj-141" value="" style="shape=partialRectangle;html=1;whiteSpace=wrap;connectable=0;strokeColor=inherit;overflow=hidden;fillColor=none;top=0;left=0;bottom=0;right=0;pointerEvents=1;fontSize=16;" vertex="1" parent="lXzNm0UQ8YknDkBXzUpj-138">
          <mxGeometry x="60" width="30" height="27" as="geometry">
            <mxRectangle width="30" height="27" as="alternateBounds" />
          </mxGeometry>
        </mxCell>
        <mxCell id="lXzNm0UQ8YknDkBXzUpj-142" value="" style="endArrow=none;html=1;rounded=0;entryX=-0.004;entryY=0.018;entryDx=0;entryDy=0;entryPerimeter=0;exitX=0.337;exitY=0.002;exitDx=0;exitDy=0;exitPerimeter=0;" edge="1" parent="1" source="lXzNm0UQ8YknDkBXzUpj-104" target="lXzNm0UQ8YknDkBXzUpj-130">
          <mxGeometry width="50" height="50" relative="1" as="geometry">
            <mxPoint x="255" y="140" as="sourcePoint" />
            <mxPoint x="305" y="90" as="targetPoint" />
          </mxGeometry>
        </mxCell>
        <mxCell id="lXzNm0UQ8YknDkBXzUpj-143" value="" style="endArrow=none;html=1;rounded=0;entryX=0.325;entryY=0.016;entryDx=0;entryDy=0;entryPerimeter=0;exitX=0.337;exitY=0.002;exitDx=0;exitDy=0;exitPerimeter=0;" edge="1" parent="1" target="lXzNm0UQ8YknDkBXzUpj-130">
          <mxGeometry width="50" height="50" relative="1" as="geometry">
            <mxPoint x="370" y="140" as="sourcePoint" />
            <mxPoint x="570" y="20" as="targetPoint" />
          </mxGeometry>
        </mxCell>
      </root>
    </mxGraphModel>
  </diagram>
</mxfile>
